{
    "asset" : {
        "generator" : "Khronos glTF Blender I/O v1.2.75",
        "version" : "2.0"
    },
    "scene" : 0,
    "scenes" : [
        {
            "name" : "Scene",
            "nodes" : [
                2
            ]
        }
    ],
    "nodes" : [
        {
            "mesh" : 0,
            "name" : "Cube.001",
            "rotation" : [
                -0.0014820509823039174,
                -0.707105278968811,
                -0.7071052193641663,
                -0.0014819442294538021
            ],
            "scale" : [
                0.08388817310333252,
                0.08388817310333252,
                0.08388817310333252
            ],
            "translation" : [
                -0.00014506257139146328,
                0.9044595956802368,
                -0.0027042627334594727
            ]
        },
        {
            "mesh" : 1,
            "name" : "Cube.002",
            "rotation" : [
                0.7071005702018738,
                0.0029652747325599194,
                0.0029652747325599194,
                0.7071005702018738
            ],
            "scale" : [
                0.08388817310333252,
                0.08388817310333252,
                0.08388817310333252
            ],
            "translation" : [
                0.0067835599184036255,
                -0.9212322235107422,
                -0.0027043819427490234
            ]
        },
        {
            "children" : [
                0,
                1
            ],
            "name" : "Empty",
            "translation" : [
                0,
                1.9120925664901733,
                0
            ]
        }
    ],
    "animations" : [
        {
            "channels" : [
                {
                    "sampler" : 0,
                    "target" : {
                        "node" : 2,
                        "path" : "rotation"
                    }
                },
                {
                    "sampler" : 1,
                    "target" : {
                        "node" : 2,
                        "path" : "translation"
                    }
                }
            ],
            "name" : "EmptyAction",
            "samplers" : [
                {
                    "input" : 7,
                    "interpolation" : "LINEAR",
                    "output" : 8
                },
                {
                    "input" : 7,
                    "interpolation" : "LINEAR",
                    "output" : 9
                }
            ]
        }
    ],
    "materials" : [
        {
            "doubleSided" : true,
            "emissiveFactor" : [
                0,
                0,
                0
            ],
            "name" : "diffrent green",
            "pbrMetallicRoughness" : {
                "baseColorFactor" : [
                    0.2874408960342407,
                    0.3139887750148773,
                    0.015208534896373749,
                    1
                ],
                "metallicFactor" : 0,
                "roughnessFactor" : 0.5
            }
        }
    ],
    "meshes" : [
        {
            "name" : "Cube.005",
            "primitives" : [
                {
                    "attributes" : {
                        "POSITION" : 0,
                        "NORMAL" : 1,
                        "TEXCOORD_0" : 2
                    },
                    "indices" : 3,
                    "material" : 0
                }
            ]
        },
        {
            "name" : "Cube.003",
            "primitives" : [
                {
                    "attributes" : {
                        "POSITION" : 4,
                        "NORMAL" : 5,
                        "TEXCOORD_0" : 6
                    },
                    "indices" : 3,
                    "material" : 0
                }
            ]
        }
    ],
    "accessors" : [
        {
            "bufferView" : 0,
            "componentType" : 5126,
            "count" : 1680,
            "max" : [
                11.433649063110352,
                1.0000001192092896,
                0.9828510284423828
            ],
            "min" : [
                -11.904131889343262,
                -1.0000001192092896,
                -11.738077163696289
            ],
            "type" : "VEC3"
        },
        {
            "bufferView" : 1,
            "componentType" : 5126,
            "count" : 1680,
            "type" : "VEC3"
        },
        {
            "bufferView" : 2,
            "componentType" : 5126,
            "count" : 1680,
            "type" : "VEC2"
        },
        {
            "bufferView" : 3,
            "componentType" : 5123,
            "count" : 7872,
            "type" : "SCALAR"
        },
        {
            "bufferView" : 4,
            "componentType" : 5126,
            "count" : 1680,
            "max" : [
                11.433649063110352,
                1.0000001192092896,
                0.9828510284423828
            ],
            "min" : [
                -11.904131889343262,
                -1.0000001192092896,
                -11.738077163696289
            ],
            "type" : "VEC3"
        },
        {
            "bufferView" : 5,
            "componentType" : 5126,
            "count" : 1680,
            "type" : "VEC3"
        },
        {
            "bufferView" : 6,
            "componentType" : 5126,
            "count" : 1680,
            "type" : "VEC2"
        },
        {
            "bufferView" : 7,
            "componentType" : 5126,
            "count" : 49,
            "max" : [
                2.0416666666666665
            ],
            "min" : [
                0.041666666666666664
            ],
            "type" : "SCALAR"
        },
        {
            "bufferView" : 8,
            "componentType" : 5126,
            "count" : 49,
            "type" : "VEC4"
        },
        {
            "bufferView" : 9,
            "componentType" : 5126,
            "count" : 49,
            "type" : "VEC3"
        }
    ],
    "bufferViews" : [
        {
            "buffer" : 0,
            "byteLength" : 20160,
            "byteOffset" : 0
        },
        {
            "buffer" : 0,
            "byteLength" : 20160,
            "byteOffset" : 20160
        },
        {
            "buffer" : 0,
            "byteLength" : 13440,
            "byteOffset" : 40320
        },
        {
            "buffer" : 0,
            "byteLength" : 15744,
            "byteOffset" : 53760
        },
        {
            "buffer" : 0,
            "byteLength" : 20160,
            "byteOffset" : 69504
        },
        {
            "buffer" : 0,
            "byteLength" : 20160,
            "byteOffset" : 89664
        },
        {
            "buffer" : 0,
            "byteLength" : 13440,
            "byteOffset" : 109824
        },
        {
            "buffer" : 0,
            "byteLength" : 196,
            "byteOffset" : 123264
        },
        {
            "buffer" : 0,
            "byteLength" : 784,
            "byteOffset" : 123460
        },
        {
            "buffer" : 0,
            "byteLength" : 588,
            "byteOffset" : 124244
        }
    ],
    "buffers" : [
        {
            "byteLength" : 124832,
            "uri" : "data:application/octet-stream;base64,"
        }
    ]
}
